<?xml version="1.0" encoding="UTF-8" standalone="no"?>
<!-- Created with Inkscape (http://www.inkscape.org/) -->

<svg
   width="172.28212mm"
   height="146.01599mm"
   viewBox="0 0 172.28212 146.01599"
   version="1.1"
   id="svg1"
   xml:space="preserve"
   inkscape:version="1.4.3 (0d15f75042, 2025-12-25)"
   sodipodi:docname="ocarina.svg"
   xmlns:inkscape="http://www.inkscape.org/namespaces/inkscape"
   xmlns:sodipodi="http://sodipodi.sourceforge.net/DTD/sodipodi-0.dtd"
   xmlns="http://www.w3.org/2000/svg"
   xmlns:svg="http://www.w3.org/2000/svg"><sodipodi:namedview
     id="namedview1"
     pagecolor="#ffffff"
     bordercolor="#000000"
     borderopacity="0.25"
     inkscape:showpageshadow="2"
     inkscape:pageopacity="0.0"
     inkscape:pagecheckerboard="0"
     inkscape:deskcolor="#d1d1d1"
     inkscape:document-units="mm"
     inkscape:zoom="0.91168017"
     inkscape:cx="400.3597"
     inkscape:cy="268.18616"
     inkscape:window-width="1920"
     inkscape:window-height="1044"
     inkscape:window-x="0"
     inkscape:window-y="0"
     inkscape:window-maximized="1"
     inkscape:current-layer="svg1" /><defs
     id="defs1" /><path
     style="display:inline;opacity:1;fill:#4e4ea8;fill-opacity:1;stroke-width:1.5"
     d="m 2.2025895,19.319505 c 0,0 -0.356543,-5.704678 6.77431,-4.991592 7.1308515,0.713084 49.5594205,29.593042 49.5594205,29.593042 0,0 75.94358,-58.11645 105.53662,-40.6458656 C 193.66598,20.745675 136.25174,92.172295 102.74761,121.13313 84.280566,137.09597 45.904301,149.39767 33.578339,145.17905 14.831746,138.76294 5.3335615,129.4628 9.2671145,107.78349 14.439387,79.277125 17.824136,86.465665 23.238602,78.149045 27.640325,71.388005 -9.2067745,32.155045 2.2025895,19.319505 Z"
     id="path1"
     sodipodi:nodetypes="cscsssssc" /><path
     style="opacity:0.407214;fill:#ebff00;fill-opacity:1;stroke-width:1.5"
     d="m 24.689677,76.631635 c 0,0 34.887212,-32.1705 33.423776,-33.09214 l -12.810632,-8.06782 c 0,0 -29.372841,24.9481 -27.835227,27.79381 z"
     id="path7"
     sodipodi:nodetypes="cscsc" /><circle
     style="opacity:1;fill:#000000;fill-opacity:1;stroke-width:1.5"
     id="circle2"
     cx="85.277016"
     cy="51.051811"
     r="7.1308527" /><circle
     style="opacity:1;fill:#000000;fill-opacity:1;stroke-width:1.5"
     id="circle3"
     cx="107.7392"
     cy="43.564415"
     r="7.1308527" /><circle
     style="opacity:1;fill:#000000;fill-opacity:1;stroke-width:1.5"
     id="circle4"
     cx="124.4967"
     cy="27.519997"
     r="7.1308527" /><circle
     style="opacity:1;fill:#000000;fill-opacity:1;stroke-width:1.5"
     id="circle5"
     cx="81.711586"
     cy="87.062614"
     r="7.1308527" /><circle
     style="opacity:1;fill:#000000;fill-opacity:1;stroke-width:1.5"
     id="circle6"
     cx="53.188179"
     cy="90.984581"
     r="7.1308527" /><circle
     style="opacity:1;fill:#000000;fill-opacity:1;stroke-width:1.5"
     id="circle7"
     cx="46.413872"
     cy="115.58602"
     r="7.1308527" /><circle
     style="opacity:1;fill:#000000;fill-opacity:1;stroke-width:1.5"
     id="path2"
     cx="69.232597"
     cy="108.81171"
     r="7.1308527" /></svg>
